<mxfile host="app.diagrams.net" modified="2021-05-30T05:37:50.251Z" agent="5.0 (Windows NT 10.0; Win64; x64) AppleWebKit/537.36 (KHTML, like Gecko) Chrome/90.0.4430.212 Safari/537.36 Edg/90.0.818.66" etag="bWVZw3piMZ7dOmZ61T8h" version="14.7.2" type="github">
  <diagram id="mXUCKLriqm6c5LfgHELx" name="Page-1">
    <mxGraphModel dx="2247" dy="1971" grid="1" gridSize="10" guides="1" tooltips="1" connect="1" arrows="1" fold="1" page="1" pageScale="1" pageWidth="827" pageHeight="1169" math="0" shadow="0">
      <root>
        <mxCell id="0" />
        <mxCell id="1" parent="0" />
        <mxCell id="AT-jJHjvUqjgdFzJRjXF-1" value="" style="rounded=0;whiteSpace=wrap;html=1;" parent="1" vertex="1">
          <mxGeometry x="200" y="60" width="60" height="450" as="geometry" />
        </mxCell>
        <mxCell id="AT-jJHjvUqjgdFzJRjXF-9" value="&lt;pre style=&quot;background-color: rgb(43 , 43 , 43) ; font-family: &amp;#34;jetbrains mono&amp;#34; , monospace ; font-size: 12pt&quot;&gt;&lt;span style=&quot;color: rgb(204 , 120 , 50)&quot;&gt;public static int &lt;/span&gt;&lt;span style=&quot;color: rgb(255 , 198 , 109)&quot;&gt;add&lt;/span&gt;&lt;font color=&quot;#a9b7c6&quot;&gt;(&lt;/font&gt;&lt;span style=&quot;color: rgb(204 , 120 , 50)&quot;&gt;int &lt;/span&gt;&lt;font color=&quot;#a9b7c6&quot;&gt;a&lt;/font&gt;&lt;span style=&quot;color: rgb(204 , 120 , 50)&quot;&gt;, int &lt;/span&gt;&lt;font color=&quot;#a9b7c6&quot;&gt;b) {&lt;br&gt;&lt;/font&gt;&lt;div style=&quot;text-align: left&quot;&gt;&lt;span style=&quot;color: rgb(204 , 120 , 50) ; font-size: 12pt ; white-space: normal&quot;&gt;&amp;nbsp; int &lt;/span&gt;&lt;span style=&quot;font-size: 12pt ; white-space: normal&quot;&gt;&lt;font color=&quot;#a9b7c6&quot;&gt;c = &lt;/font&gt;&lt;font color=&quot;#6897bb&quot;&gt;1&lt;/font&gt;&lt;/span&gt;&lt;span style=&quot;color: rgb(204 , 120 , 50) ; font-size: 12pt ; white-space: normal&quot;&gt;;&lt;/span&gt;&lt;/div&gt;&lt;span style=&quot;color: rgb(204 , 120 , 50)&quot;&gt;&lt;div style=&quot;text-align: left&quot;&gt;&lt;span style=&quot;font-size: 12pt ; white-space: normal&quot;&gt;&lt;/span&gt;&lt;span style=&quot;color: rgb(169 , 183 , 198) ; font-size: 12pt ; white-space: normal&quot;&gt;&amp;nbsp; c = a + b&lt;/span&gt;&lt;span style=&quot;font-size: 12pt ; white-space: normal&quot;&gt;;&lt;/span&gt;&lt;/div&gt;&lt;/span&gt;&lt;span style=&quot;color: rgb(204 , 120 , 50)&quot;&gt;&lt;div style=&quot;text-align: left&quot;&gt;&lt;span style=&quot;font-size: 12pt ; white-space: normal ; color: rgb(169 , 183 , 198)&quot;&gt;&lt;span style=&quot;color: #cc7832&quot;&gt;&amp;nbsp; return &lt;/span&gt;c&lt;/span&gt;&lt;font color=&quot;#cc7832&quot; style=&quot;font-size: 12pt ; white-space: normal&quot;&gt;;&lt;/font&gt;&lt;/div&gt;&lt;div style=&quot;text-align: left&quot;&gt;&lt;font color=&quot;#a9b7c6&quot; style=&quot;font-size: 12pt ; white-space: normal&quot;&gt;}&lt;/font&gt;&lt;/div&gt;&lt;/span&gt;&lt;/pre&gt;" style="rounded=0;whiteSpace=wrap;html=1;" parent="1" vertex="1">
          <mxGeometry x="-220" y="190" width="300" height="190" as="geometry" />
        </mxCell>
        <mxCell id="AT-jJHjvUqjgdFzJRjXF-10" value="JVM指令" style="text;html=1;strokeColor=none;fillColor=none;align=center;verticalAlign=middle;whiteSpace=wrap;rounded=0;" parent="1" vertex="1">
          <mxGeometry x="110" y="100" width="60" height="20" as="geometry" />
        </mxCell>
        <mxCell id="AT-jJHjvUqjgdFzJRjXF-11" value="局部变量表" style="text;html=1;strokeColor=none;fillColor=none;align=center;verticalAlign=middle;whiteSpace=wrap;rounded=0;" parent="1" vertex="1">
          <mxGeometry x="110" y="200" width="70" height="20" as="geometry" />
        </mxCell>
        <mxCell id="AT-jJHjvUqjgdFzJRjXF-12" value="操作数栈" style="text;html=1;strokeColor=none;fillColor=none;align=center;verticalAlign=middle;whiteSpace=wrap;rounded=0;" parent="1" vertex="1">
          <mxGeometry x="110" y="335" width="70" height="20" as="geometry" />
        </mxCell>
        <mxCell id="AT-jJHjvUqjgdFzJRjXF-13" value="程序计数器" style="text;html=1;strokeColor=none;fillColor=none;align=center;verticalAlign=middle;whiteSpace=wrap;rounded=0;" parent="1" vertex="1">
          <mxGeometry x="105" y="440" width="70" height="20" as="geometry" />
        </mxCell>
        <mxCell id="AT-jJHjvUqjgdFzJRjXF-15" value="iconst_1" style="rounded=0;whiteSpace=wrap;html=1;" parent="1" vertex="1">
          <mxGeometry x="200" y="90" width="60" height="50" as="geometry" />
        </mxCell>
        <mxCell id="AT-jJHjvUqjgdFzJRjXF-16" value="" style="rounded=0;whiteSpace=wrap;html=1;" parent="1" vertex="1">
          <mxGeometry x="200" y="320" width="60" height="50" as="geometry" />
        </mxCell>
        <mxCell id="AT-jJHjvUqjgdFzJRjXF-17" value="" style="endArrow=none;html=1;exitX=0;exitY=0.5;exitDx=0;exitDy=0;entryX=1;entryY=0.5;entryDx=0;entryDy=0;" parent="1" source="AT-jJHjvUqjgdFzJRjXF-16" target="AT-jJHjvUqjgdFzJRjXF-16" edge="1">
          <mxGeometry width="50" height="50" relative="1" as="geometry">
            <mxPoint x="-30" y="500" as="sourcePoint" />
            <mxPoint x="20" y="450" as="targetPoint" />
          </mxGeometry>
        </mxCell>
        <mxCell id="AT-jJHjvUqjgdFzJRjXF-18" value="0" style="rounded=0;whiteSpace=wrap;html=1;" parent="1" vertex="1">
          <mxGeometry x="200" y="440" width="60" height="40" as="geometry" />
        </mxCell>
        <mxCell id="AT-jJHjvUqjgdFzJRjXF-21" value="" style="rounded=0;whiteSpace=wrap;html=1;" parent="1" vertex="1">
          <mxGeometry x="200" y="190" width="60" height="70" as="geometry" />
        </mxCell>
        <mxCell id="AT-jJHjvUqjgdFzJRjXF-23" value="1" style="text;html=1;strokeColor=none;fillColor=none;align=center;verticalAlign=middle;whiteSpace=wrap;rounded=0;" parent="1" vertex="1">
          <mxGeometry x="210" y="320" width="40" height="20" as="geometry" />
        </mxCell>
        <mxCell id="3ay6UAlux8P0Uh6I4l5S-71" value="" style="endArrow=none;html=1;" edge="1" parent="1">
          <mxGeometry width="50" height="50" relative="1" as="geometry">
            <mxPoint x="260" y="216" as="sourcePoint" />
            <mxPoint x="202" y="216" as="targetPoint" />
          </mxGeometry>
        </mxCell>
        <mxCell id="3ay6UAlux8P0Uh6I4l5S-72" value="" style="endArrow=none;html=1;" edge="1" parent="1">
          <mxGeometry width="50" height="50" relative="1" as="geometry">
            <mxPoint x="260" y="240" as="sourcePoint" />
            <mxPoint x="200" y="240" as="targetPoint" />
          </mxGeometry>
        </mxCell>
        <mxCell id="3ay6UAlux8P0Uh6I4l5S-73" value="1" style="text;html=1;strokeColor=none;fillColor=none;align=center;verticalAlign=middle;whiteSpace=wrap;rounded=0;" vertex="1" parent="1">
          <mxGeometry x="210" y="190" width="40" height="20" as="geometry" />
        </mxCell>
        <mxCell id="3ay6UAlux8P0Uh6I4l5S-74" value="2" style="text;html=1;strokeColor=none;fillColor=none;align=center;verticalAlign=middle;whiteSpace=wrap;rounded=0;" vertex="1" parent="1">
          <mxGeometry x="210" y="220" width="40" height="20" as="geometry" />
        </mxCell>
        <mxCell id="3ay6UAlux8P0Uh6I4l5S-75" value="" style="rounded=0;whiteSpace=wrap;html=1;" vertex="1" parent="1">
          <mxGeometry x="320" y="60" width="60" height="450" as="geometry" />
        </mxCell>
        <mxCell id="3ay6UAlux8P0Uh6I4l5S-76" value="istore_2" style="rounded=0;whiteSpace=wrap;html=1;" vertex="1" parent="1">
          <mxGeometry x="320" y="90" width="60" height="50" as="geometry" />
        </mxCell>
        <mxCell id="3ay6UAlux8P0Uh6I4l5S-77" value="" style="rounded=0;whiteSpace=wrap;html=1;" vertex="1" parent="1">
          <mxGeometry x="320" y="320" width="60" height="50" as="geometry" />
        </mxCell>
        <mxCell id="3ay6UAlux8P0Uh6I4l5S-78" value="" style="endArrow=none;html=1;exitX=0;exitY=0.5;exitDx=0;exitDy=0;entryX=1;entryY=0.5;entryDx=0;entryDy=0;" edge="1" parent="1" source="3ay6UAlux8P0Uh6I4l5S-77" target="3ay6UAlux8P0Uh6I4l5S-77">
          <mxGeometry width="50" height="50" relative="1" as="geometry">
            <mxPoint x="90" y="500" as="sourcePoint" />
            <mxPoint x="140" y="450" as="targetPoint" />
          </mxGeometry>
        </mxCell>
        <mxCell id="3ay6UAlux8P0Uh6I4l5S-79" value="1" style="rounded=0;whiteSpace=wrap;html=1;" vertex="1" parent="1">
          <mxGeometry x="320" y="440" width="60" height="40" as="geometry" />
        </mxCell>
        <mxCell id="3ay6UAlux8P0Uh6I4l5S-80" value="" style="rounded=0;whiteSpace=wrap;html=1;" vertex="1" parent="1">
          <mxGeometry x="320" y="190" width="60" height="70" as="geometry" />
        </mxCell>
        <mxCell id="3ay6UAlux8P0Uh6I4l5S-82" value="" style="endArrow=none;html=1;" edge="1" parent="1">
          <mxGeometry width="50" height="50" relative="1" as="geometry">
            <mxPoint x="380" y="216" as="sourcePoint" />
            <mxPoint x="322" y="216" as="targetPoint" />
          </mxGeometry>
        </mxCell>
        <mxCell id="3ay6UAlux8P0Uh6I4l5S-83" value="" style="endArrow=none;html=1;" edge="1" parent="1">
          <mxGeometry width="50" height="50" relative="1" as="geometry">
            <mxPoint x="380" y="240" as="sourcePoint" />
            <mxPoint x="320" y="240" as="targetPoint" />
          </mxGeometry>
        </mxCell>
        <mxCell id="3ay6UAlux8P0Uh6I4l5S-84" value="1" style="text;html=1;strokeColor=none;fillColor=none;align=center;verticalAlign=middle;whiteSpace=wrap;rounded=0;" vertex="1" parent="1">
          <mxGeometry x="330" y="190" width="40" height="20" as="geometry" />
        </mxCell>
        <mxCell id="3ay6UAlux8P0Uh6I4l5S-85" value="2" style="text;html=1;strokeColor=none;fillColor=none;align=center;verticalAlign=middle;whiteSpace=wrap;rounded=0;" vertex="1" parent="1">
          <mxGeometry x="330" y="220" width="40" height="20" as="geometry" />
        </mxCell>
        <mxCell id="3ay6UAlux8P0Uh6I4l5S-86" value="" style="rounded=0;whiteSpace=wrap;html=1;" vertex="1" parent="1">
          <mxGeometry x="440" y="60" width="60" height="450" as="geometry" />
        </mxCell>
        <mxCell id="3ay6UAlux8P0Uh6I4l5S-87" value="iload_0" style="rounded=0;whiteSpace=wrap;html=1;" vertex="1" parent="1">
          <mxGeometry x="440" y="90" width="60" height="50" as="geometry" />
        </mxCell>
        <mxCell id="3ay6UAlux8P0Uh6I4l5S-88" value="" style="rounded=0;whiteSpace=wrap;html=1;" vertex="1" parent="1">
          <mxGeometry x="440" y="320" width="60" height="50" as="geometry" />
        </mxCell>
        <mxCell id="3ay6UAlux8P0Uh6I4l5S-89" value="" style="endArrow=none;html=1;exitX=0;exitY=0.5;exitDx=0;exitDy=0;entryX=1;entryY=0.5;entryDx=0;entryDy=0;" edge="1" parent="1" source="3ay6UAlux8P0Uh6I4l5S-88" target="3ay6UAlux8P0Uh6I4l5S-88">
          <mxGeometry width="50" height="50" relative="1" as="geometry">
            <mxPoint x="210" y="500" as="sourcePoint" />
            <mxPoint x="260" y="450" as="targetPoint" />
          </mxGeometry>
        </mxCell>
        <mxCell id="3ay6UAlux8P0Uh6I4l5S-90" value="2" style="rounded=0;whiteSpace=wrap;html=1;" vertex="1" parent="1">
          <mxGeometry x="440" y="440" width="60" height="40" as="geometry" />
        </mxCell>
        <mxCell id="3ay6UAlux8P0Uh6I4l5S-91" value="" style="rounded=0;whiteSpace=wrap;html=1;" vertex="1" parent="1">
          <mxGeometry x="440" y="190" width="60" height="70" as="geometry" />
        </mxCell>
        <mxCell id="3ay6UAlux8P0Uh6I4l5S-92" value="1" style="text;html=1;strokeColor=none;fillColor=none;align=center;verticalAlign=middle;whiteSpace=wrap;rounded=0;" vertex="1" parent="1">
          <mxGeometry x="450" y="320" width="40" height="20" as="geometry" />
        </mxCell>
        <mxCell id="3ay6UAlux8P0Uh6I4l5S-93" value="" style="endArrow=none;html=1;" edge="1" parent="1">
          <mxGeometry width="50" height="50" relative="1" as="geometry">
            <mxPoint x="500" y="216" as="sourcePoint" />
            <mxPoint x="442" y="216" as="targetPoint" />
          </mxGeometry>
        </mxCell>
        <mxCell id="3ay6UAlux8P0Uh6I4l5S-94" value="" style="endArrow=none;html=1;" edge="1" parent="1">
          <mxGeometry width="50" height="50" relative="1" as="geometry">
            <mxPoint x="500" y="240" as="sourcePoint" />
            <mxPoint x="440" y="240" as="targetPoint" />
          </mxGeometry>
        </mxCell>
        <mxCell id="3ay6UAlux8P0Uh6I4l5S-96" value="2" style="text;html=1;strokeColor=none;fillColor=none;align=center;verticalAlign=middle;whiteSpace=wrap;rounded=0;" vertex="1" parent="1">
          <mxGeometry x="450" y="220" width="40" height="20" as="geometry" />
        </mxCell>
        <mxCell id="3ay6UAlux8P0Uh6I4l5S-97" value="" style="rounded=0;whiteSpace=wrap;html=1;" vertex="1" parent="1">
          <mxGeometry x="560" y="60" width="60" height="450" as="geometry" />
        </mxCell>
        <mxCell id="3ay6UAlux8P0Uh6I4l5S-98" value="iload_1" style="rounded=0;whiteSpace=wrap;html=1;" vertex="1" parent="1">
          <mxGeometry x="560" y="90" width="60" height="50" as="geometry" />
        </mxCell>
        <mxCell id="3ay6UAlux8P0Uh6I4l5S-99" value="" style="rounded=0;whiteSpace=wrap;html=1;" vertex="1" parent="1">
          <mxGeometry x="560" y="320" width="60" height="50" as="geometry" />
        </mxCell>
        <mxCell id="3ay6UAlux8P0Uh6I4l5S-100" value="" style="endArrow=none;html=1;exitX=0;exitY=0.5;exitDx=0;exitDy=0;entryX=1;entryY=0.5;entryDx=0;entryDy=0;" edge="1" parent="1" source="3ay6UAlux8P0Uh6I4l5S-99" target="3ay6UAlux8P0Uh6I4l5S-99">
          <mxGeometry width="50" height="50" relative="1" as="geometry">
            <mxPoint x="330" y="500" as="sourcePoint" />
            <mxPoint x="380" y="450" as="targetPoint" />
          </mxGeometry>
        </mxCell>
        <mxCell id="3ay6UAlux8P0Uh6I4l5S-101" value="3" style="rounded=0;whiteSpace=wrap;html=1;" vertex="1" parent="1">
          <mxGeometry x="560" y="440" width="60" height="40" as="geometry" />
        </mxCell>
        <mxCell id="3ay6UAlux8P0Uh6I4l5S-102" value="" style="rounded=0;whiteSpace=wrap;html=1;" vertex="1" parent="1">
          <mxGeometry x="560" y="190" width="60" height="70" as="geometry" />
        </mxCell>
        <mxCell id="3ay6UAlux8P0Uh6I4l5S-103" value="2" style="text;html=1;strokeColor=none;fillColor=none;align=center;verticalAlign=middle;whiteSpace=wrap;rounded=0;" vertex="1" parent="1">
          <mxGeometry x="570" y="320" width="40" height="20" as="geometry" />
        </mxCell>
        <mxCell id="3ay6UAlux8P0Uh6I4l5S-104" value="" style="endArrow=none;html=1;" edge="1" parent="1">
          <mxGeometry width="50" height="50" relative="1" as="geometry">
            <mxPoint x="620" y="216" as="sourcePoint" />
            <mxPoint x="562" y="216" as="targetPoint" />
          </mxGeometry>
        </mxCell>
        <mxCell id="3ay6UAlux8P0Uh6I4l5S-105" value="" style="endArrow=none;html=1;" edge="1" parent="1">
          <mxGeometry width="50" height="50" relative="1" as="geometry">
            <mxPoint x="620" y="240" as="sourcePoint" />
            <mxPoint x="560" y="240" as="targetPoint" />
          </mxGeometry>
        </mxCell>
        <mxCell id="3ay6UAlux8P0Uh6I4l5S-106" value="1" style="text;html=1;strokeColor=none;fillColor=none;align=center;verticalAlign=middle;whiteSpace=wrap;rounded=0;" vertex="1" parent="1">
          <mxGeometry x="570" y="190" width="40" height="20" as="geometry" />
        </mxCell>
        <mxCell id="3ay6UAlux8P0Uh6I4l5S-107" value="2" style="text;html=1;strokeColor=none;fillColor=none;align=center;verticalAlign=middle;whiteSpace=wrap;rounded=0;" vertex="1" parent="1">
          <mxGeometry x="570" y="220" width="40" height="20" as="geometry" />
        </mxCell>
        <mxCell id="3ay6UAlux8P0Uh6I4l5S-108" value="" style="rounded=0;whiteSpace=wrap;html=1;" vertex="1" parent="1">
          <mxGeometry x="680" y="60" width="60" height="450" as="geometry" />
        </mxCell>
        <mxCell id="3ay6UAlux8P0Uh6I4l5S-109" value="iadd" style="rounded=0;whiteSpace=wrap;html=1;" vertex="1" parent="1">
          <mxGeometry x="680" y="90" width="60" height="50" as="geometry" />
        </mxCell>
        <mxCell id="3ay6UAlux8P0Uh6I4l5S-110" value="" style="rounded=0;whiteSpace=wrap;html=1;" vertex="1" parent="1">
          <mxGeometry x="680" y="320" width="60" height="50" as="geometry" />
        </mxCell>
        <mxCell id="3ay6UAlux8P0Uh6I4l5S-111" value="" style="endArrow=none;html=1;exitX=0;exitY=0.5;exitDx=0;exitDy=0;entryX=1;entryY=0.5;entryDx=0;entryDy=0;" edge="1" parent="1" source="3ay6UAlux8P0Uh6I4l5S-110" target="3ay6UAlux8P0Uh6I4l5S-110">
          <mxGeometry width="50" height="50" relative="1" as="geometry">
            <mxPoint x="450" y="500" as="sourcePoint" />
            <mxPoint x="500" y="450" as="targetPoint" />
          </mxGeometry>
        </mxCell>
        <mxCell id="3ay6UAlux8P0Uh6I4l5S-112" value="4" style="rounded=0;whiteSpace=wrap;html=1;" vertex="1" parent="1">
          <mxGeometry x="680" y="440" width="60" height="40" as="geometry" />
        </mxCell>
        <mxCell id="3ay6UAlux8P0Uh6I4l5S-113" value="" style="rounded=0;whiteSpace=wrap;html=1;" vertex="1" parent="1">
          <mxGeometry x="680" y="190" width="60" height="70" as="geometry" />
        </mxCell>
        <mxCell id="3ay6UAlux8P0Uh6I4l5S-114" value="3" style="text;html=1;strokeColor=none;fillColor=none;align=center;verticalAlign=middle;whiteSpace=wrap;rounded=0;" vertex="1" parent="1">
          <mxGeometry x="690" y="320" width="40" height="20" as="geometry" />
        </mxCell>
        <mxCell id="3ay6UAlux8P0Uh6I4l5S-115" value="" style="endArrow=none;html=1;" edge="1" parent="1">
          <mxGeometry width="50" height="50" relative="1" as="geometry">
            <mxPoint x="740" y="216" as="sourcePoint" />
            <mxPoint x="682" y="216" as="targetPoint" />
          </mxGeometry>
        </mxCell>
        <mxCell id="3ay6UAlux8P0Uh6I4l5S-116" value="" style="endArrow=none;html=1;" edge="1" parent="1">
          <mxGeometry width="50" height="50" relative="1" as="geometry">
            <mxPoint x="740" y="240" as="sourcePoint" />
            <mxPoint x="680" y="240" as="targetPoint" />
          </mxGeometry>
        </mxCell>
        <mxCell id="3ay6UAlux8P0Uh6I4l5S-117" value="1" style="text;html=1;strokeColor=none;fillColor=none;align=center;verticalAlign=middle;whiteSpace=wrap;rounded=0;" vertex="1" parent="1">
          <mxGeometry x="690" y="190" width="40" height="20" as="geometry" />
        </mxCell>
        <mxCell id="3ay6UAlux8P0Uh6I4l5S-118" value="2" style="text;html=1;strokeColor=none;fillColor=none;align=center;verticalAlign=middle;whiteSpace=wrap;rounded=0;" vertex="1" parent="1">
          <mxGeometry x="690" y="220" width="40" height="20" as="geometry" />
        </mxCell>
        <mxCell id="3ay6UAlux8P0Uh6I4l5S-119" value="" style="rounded=0;whiteSpace=wrap;html=1;" vertex="1" parent="1">
          <mxGeometry x="800" y="60" width="60" height="450" as="geometry" />
        </mxCell>
        <mxCell id="3ay6UAlux8P0Uh6I4l5S-120" value="istore_2" style="rounded=0;whiteSpace=wrap;html=1;" vertex="1" parent="1">
          <mxGeometry x="800" y="90" width="60" height="50" as="geometry" />
        </mxCell>
        <mxCell id="3ay6UAlux8P0Uh6I4l5S-121" value="" style="rounded=0;whiteSpace=wrap;html=1;" vertex="1" parent="1">
          <mxGeometry x="800" y="320" width="60" height="50" as="geometry" />
        </mxCell>
        <mxCell id="3ay6UAlux8P0Uh6I4l5S-122" value="" style="endArrow=none;html=1;exitX=0;exitY=0.5;exitDx=0;exitDy=0;entryX=1;entryY=0.5;entryDx=0;entryDy=0;" edge="1" parent="1" source="3ay6UAlux8P0Uh6I4l5S-121" target="3ay6UAlux8P0Uh6I4l5S-121">
          <mxGeometry width="50" height="50" relative="1" as="geometry">
            <mxPoint x="570" y="500" as="sourcePoint" />
            <mxPoint x="620" y="450" as="targetPoint" />
          </mxGeometry>
        </mxCell>
        <mxCell id="3ay6UAlux8P0Uh6I4l5S-123" value="5" style="rounded=0;whiteSpace=wrap;html=1;" vertex="1" parent="1">
          <mxGeometry x="800" y="440" width="60" height="40" as="geometry" />
        </mxCell>
        <mxCell id="3ay6UAlux8P0Uh6I4l5S-124" value="" style="rounded=0;whiteSpace=wrap;html=1;" vertex="1" parent="1">
          <mxGeometry x="800" y="190" width="60" height="70" as="geometry" />
        </mxCell>
        <mxCell id="3ay6UAlux8P0Uh6I4l5S-125" value="3" style="text;html=1;strokeColor=none;fillColor=none;align=center;verticalAlign=middle;whiteSpace=wrap;rounded=0;" vertex="1" parent="1">
          <mxGeometry x="810" y="240" width="40" height="20" as="geometry" />
        </mxCell>
        <mxCell id="3ay6UAlux8P0Uh6I4l5S-126" value="" style="endArrow=none;html=1;" edge="1" parent="1">
          <mxGeometry width="50" height="50" relative="1" as="geometry">
            <mxPoint x="860" y="216" as="sourcePoint" />
            <mxPoint x="802" y="216" as="targetPoint" />
          </mxGeometry>
        </mxCell>
        <mxCell id="3ay6UAlux8P0Uh6I4l5S-127" value="" style="endArrow=none;html=1;" edge="1" parent="1">
          <mxGeometry width="50" height="50" relative="1" as="geometry">
            <mxPoint x="860" y="240" as="sourcePoint" />
            <mxPoint x="800" y="240" as="targetPoint" />
          </mxGeometry>
        </mxCell>
        <mxCell id="3ay6UAlux8P0Uh6I4l5S-128" value="1" style="text;html=1;strokeColor=none;fillColor=none;align=center;verticalAlign=middle;whiteSpace=wrap;rounded=0;" vertex="1" parent="1">
          <mxGeometry x="810" y="190" width="40" height="20" as="geometry" />
        </mxCell>
        <mxCell id="3ay6UAlux8P0Uh6I4l5S-129" value="2" style="text;html=1;strokeColor=none;fillColor=none;align=center;verticalAlign=middle;whiteSpace=wrap;rounded=0;" vertex="1" parent="1">
          <mxGeometry x="810" y="220" width="40" height="20" as="geometry" />
        </mxCell>
        <mxCell id="3ay6UAlux8P0Uh6I4l5S-130" value="" style="rounded=0;whiteSpace=wrap;html=1;" vertex="1" parent="1">
          <mxGeometry x="920" y="60" width="60" height="450" as="geometry" />
        </mxCell>
        <mxCell id="3ay6UAlux8P0Uh6I4l5S-131" value="iload_2" style="rounded=0;whiteSpace=wrap;html=1;" vertex="1" parent="1">
          <mxGeometry x="920" y="90" width="60" height="50" as="geometry" />
        </mxCell>
        <mxCell id="3ay6UAlux8P0Uh6I4l5S-132" value="" style="rounded=0;whiteSpace=wrap;html=1;" vertex="1" parent="1">
          <mxGeometry x="920" y="320" width="60" height="50" as="geometry" />
        </mxCell>
        <mxCell id="3ay6UAlux8P0Uh6I4l5S-133" value="" style="endArrow=none;html=1;exitX=0;exitY=0.5;exitDx=0;exitDy=0;entryX=1;entryY=0.5;entryDx=0;entryDy=0;" edge="1" parent="1" source="3ay6UAlux8P0Uh6I4l5S-132" target="3ay6UAlux8P0Uh6I4l5S-132">
          <mxGeometry width="50" height="50" relative="1" as="geometry">
            <mxPoint x="690" y="500" as="sourcePoint" />
            <mxPoint x="740" y="450" as="targetPoint" />
          </mxGeometry>
        </mxCell>
        <mxCell id="3ay6UAlux8P0Uh6I4l5S-134" value="6" style="rounded=0;whiteSpace=wrap;html=1;" vertex="1" parent="1">
          <mxGeometry x="920" y="440" width="60" height="40" as="geometry" />
        </mxCell>
        <mxCell id="3ay6UAlux8P0Uh6I4l5S-135" value="" style="rounded=0;whiteSpace=wrap;html=1;" vertex="1" parent="1">
          <mxGeometry x="920" y="190" width="60" height="70" as="geometry" />
        </mxCell>
        <mxCell id="3ay6UAlux8P0Uh6I4l5S-136" value="3" style="text;html=1;strokeColor=none;fillColor=none;align=center;verticalAlign=middle;whiteSpace=wrap;rounded=0;" vertex="1" parent="1">
          <mxGeometry x="930" y="320" width="40" height="20" as="geometry" />
        </mxCell>
        <mxCell id="3ay6UAlux8P0Uh6I4l5S-137" value="" style="endArrow=none;html=1;" edge="1" parent="1">
          <mxGeometry width="50" height="50" relative="1" as="geometry">
            <mxPoint x="980" y="216" as="sourcePoint" />
            <mxPoint x="922" y="216" as="targetPoint" />
          </mxGeometry>
        </mxCell>
        <mxCell id="3ay6UAlux8P0Uh6I4l5S-138" value="" style="endArrow=none;html=1;" edge="1" parent="1">
          <mxGeometry width="50" height="50" relative="1" as="geometry">
            <mxPoint x="980" y="240" as="sourcePoint" />
            <mxPoint x="920" y="240" as="targetPoint" />
          </mxGeometry>
        </mxCell>
        <mxCell id="3ay6UAlux8P0Uh6I4l5S-139" value="1" style="text;html=1;strokeColor=none;fillColor=none;align=center;verticalAlign=middle;whiteSpace=wrap;rounded=0;" vertex="1" parent="1">
          <mxGeometry x="930" y="190" width="40" height="20" as="geometry" />
        </mxCell>
        <mxCell id="3ay6UAlux8P0Uh6I4l5S-140" value="2" style="text;html=1;strokeColor=none;fillColor=none;align=center;verticalAlign=middle;whiteSpace=wrap;rounded=0;" vertex="1" parent="1">
          <mxGeometry x="930" y="220" width="40" height="20" as="geometry" />
        </mxCell>
        <mxCell id="3ay6UAlux8P0Uh6I4l5S-141" value="" style="rounded=0;whiteSpace=wrap;html=1;" vertex="1" parent="1">
          <mxGeometry x="1040" y="60" width="60" height="450" as="geometry" />
        </mxCell>
        <mxCell id="3ay6UAlux8P0Uh6I4l5S-142" value="ireturn" style="rounded=0;whiteSpace=wrap;html=1;" vertex="1" parent="1">
          <mxGeometry x="1040" y="90" width="60" height="50" as="geometry" />
        </mxCell>
        <mxCell id="3ay6UAlux8P0Uh6I4l5S-145" value="7" style="rounded=0;whiteSpace=wrap;html=1;" vertex="1" parent="1">
          <mxGeometry x="1040" y="440" width="60" height="40" as="geometry" />
        </mxCell>
        <mxCell id="3ay6UAlux8P0Uh6I4l5S-152" value="1" style="text;html=1;strokeColor=none;fillColor=none;align=center;verticalAlign=middle;whiteSpace=wrap;rounded=0;" vertex="1" parent="1">
          <mxGeometry x="330" y="240" width="40" height="20" as="geometry" />
        </mxCell>
        <mxCell id="3ay6UAlux8P0Uh6I4l5S-153" value="1" style="text;html=1;strokeColor=none;fillColor=none;align=center;verticalAlign=middle;whiteSpace=wrap;rounded=0;" vertex="1" parent="1">
          <mxGeometry x="450" y="240" width="40" height="20" as="geometry" />
        </mxCell>
        <mxCell id="3ay6UAlux8P0Uh6I4l5S-154" value="1" style="text;html=1;strokeColor=none;fillColor=none;align=center;verticalAlign=middle;whiteSpace=wrap;rounded=0;" vertex="1" parent="1">
          <mxGeometry x="450" y="190" width="40" height="20" as="geometry" />
        </mxCell>
        <mxCell id="3ay6UAlux8P0Uh6I4l5S-155" value="1" style="text;html=1;strokeColor=none;fillColor=none;align=center;verticalAlign=middle;whiteSpace=wrap;rounded=0;" vertex="1" parent="1">
          <mxGeometry x="570" y="348" width="40" height="20" as="geometry" />
        </mxCell>
        <mxCell id="3ay6UAlux8P0Uh6I4l5S-156" value="1" style="text;html=1;strokeColor=none;fillColor=none;align=center;verticalAlign=middle;whiteSpace=wrap;rounded=0;" vertex="1" parent="1">
          <mxGeometry x="570" y="240" width="40" height="20" as="geometry" />
        </mxCell>
        <mxCell id="3ay6UAlux8P0Uh6I4l5S-157" value="1" style="text;html=1;strokeColor=none;fillColor=none;align=center;verticalAlign=middle;whiteSpace=wrap;rounded=0;" vertex="1" parent="1">
          <mxGeometry x="690" y="240" width="40" height="20" as="geometry" />
        </mxCell>
        <mxCell id="3ay6UAlux8P0Uh6I4l5S-158" value="3" style="text;html=1;strokeColor=none;fillColor=none;align=center;verticalAlign=middle;whiteSpace=wrap;rounded=0;" vertex="1" parent="1">
          <mxGeometry x="930" y="240" width="40" height="20" as="geometry" />
        </mxCell>
        <mxCell id="3ay6UAlux8P0Uh6I4l5S-159" value="将1放入操作数栈" style="text;html=1;strokeColor=none;fillColor=none;align=center;verticalAlign=middle;whiteSpace=wrap;rounded=0;" vertex="1" parent="1">
          <mxGeometry x="210" y="-3" width="40" height="20" as="geometry" />
        </mxCell>
        <mxCell id="3ay6UAlux8P0Uh6I4l5S-160" value="将栈顶元素弹出放入局部变量表第二个位置" style="text;html=1;strokeColor=none;fillColor=none;align=center;verticalAlign=middle;whiteSpace=wrap;rounded=0;" vertex="1" parent="1">
          <mxGeometry x="320" width="70" height="20" as="geometry" />
        </mxCell>
        <mxCell id="3ay6UAlux8P0Uh6I4l5S-162" value="将局部变量表第0个位置压入栈顶" style="text;html=1;strokeColor=none;fillColor=none;align=center;verticalAlign=middle;whiteSpace=wrap;rounded=0;" vertex="1" parent="1">
          <mxGeometry x="430" width="70" height="20" as="geometry" />
        </mxCell>
        <mxCell id="3ay6UAlux8P0Uh6I4l5S-163" value="将局部变量表第1个位置压入栈顶" style="text;html=1;strokeColor=none;fillColor=none;align=center;verticalAlign=middle;whiteSpace=wrap;rounded=0;" vertex="1" parent="1">
          <mxGeometry x="550" width="70" height="20" as="geometry" />
        </mxCell>
        <mxCell id="3ay6UAlux8P0Uh6I4l5S-164" value="将栈内元素弹出计算，将结果压入栈顶" style="text;html=1;strokeColor=none;fillColor=none;align=center;verticalAlign=middle;whiteSpace=wrap;rounded=0;" vertex="1" parent="1">
          <mxGeometry x="675" width="70" height="20" as="geometry" />
        </mxCell>
        <mxCell id="3ay6UAlux8P0Uh6I4l5S-165" value="&lt;span style=&quot;color: rgb(0 , 0 , 0) ; font-family: &amp;#34;helvetica&amp;#34; ; font-size: 12px ; font-style: normal ; font-weight: 400 ; letter-spacing: normal ; text-align: center ; text-indent: 0px ; text-transform: none ; word-spacing: 0px ; background-color: rgb(248 , 249 , 250) ; display: inline ; float: none&quot;&gt;将栈顶元素弹出放入局部变量表第二个位置&lt;/span&gt;" style="text;whiteSpace=wrap;html=1;" vertex="1" parent="1">
          <mxGeometry x="799" y="-22" width="70" height="30" as="geometry" />
        </mxCell>
        <mxCell id="3ay6UAlux8P0Uh6I4l5S-166" value="将局部变量表第二个位置元素压入栈顶" style="text;html=1;strokeColor=none;fillColor=none;align=center;verticalAlign=middle;whiteSpace=wrap;rounded=0;" vertex="1" parent="1">
          <mxGeometry x="915" width="70" height="20" as="geometry" />
        </mxCell>
        <mxCell id="3ay6UAlux8P0Uh6I4l5S-168" value="计算结束，弹出栈顶元素返回" style="text;html=1;strokeColor=none;fillColor=none;align=center;verticalAlign=middle;whiteSpace=wrap;rounded=0;" vertex="1" parent="1">
          <mxGeometry x="1050" y="-3" width="50" height="23" as="geometry" />
        </mxCell>
      </root>
    </mxGraphModel>
  </diagram>
</mxfile>
